<svg width="20" height="20" viewBox="0 0 20 20" fill="none" xmlns="http://www.w3.org/2000/svg">
<path fill-rule="evenodd" clip-rule="evenodd" d="M6.9798 2.50362H13.0202C13.7299 2.46734 14.4254 2.70517 14.9532 3.16461C15.481 3.62404 15.7976 4.26732 15.8333 4.95247V16.6637C15.8343 16.8982 15.7328 17.1223 15.5538 17.2808C15.3747 17.4394 15.1347 17.5177 14.8928 17.4966C14.6807 17.4966 14.4745 17.4293 14.306 17.305L10.5695 14.5647C10.2167 14.3092 9.73155 14.3092 9.37871 14.5647L5.6768 17.305C5.51299 17.4259 5.31343 17.493 5.10727 17.4966C4.86528 17.5177 4.62529 17.4394 4.44625 17.2808C4.2672 17.1223 4.16571 16.8982 4.16669 16.6637V4.95247C4.20238 4.26732 4.51906 3.62404 5.04683 3.16461C5.57461 2.70517 6.2701 2.46734 6.9798 2.50362ZM11.3721 13.5734L14.5217 15.9057L14.5044 4.95247C14.4228 4.22628 13.7573 3.69466 13.003 3.75303H6.96255C6.20822 3.69466 5.54273 4.22628 5.46107 4.95247V15.9057L8.61072 13.5734C9.42628 12.9736 10.5565 12.9736 11.3721 13.5734Z" fill="black"/>
</svg>
