<svg width="18" height="16" viewBox="0 0 18 16" fill="none" xmlns="http://www.w3.org/2000/svg">
<path d="M9.08335 15.3333C8.66669 15.3333 8.16669 15.1667 7.83335 14.8333C2.41669 10.0833 2.33335 10 2.33335 9.91667L2.25002 9.83333C1.25002 8.83333 0.666687 7.41667 0.666687 6V5.83333C0.75002 2.83333 3.16669 0.5 6.16669 0.5C7.08335 0.5 8.33335 1 9.08335 2C9.83335 1 11.1667 0.5 12.0834 0.5C15.0834 0.5 17.4167 2.83333 17.5833 5.83333V6C17.5833 7.5 17 8.83333 16 9.91667L15.9167 10C15.8334 10.0833 15.1667 10.6667 10.4167 14.9167C10 15.1667 9.58335 15.3333 9.08335 15.3333ZM3.58335 9.66667C3.91669 10 5.58335 11.1667 8.66669 13.8333C8.91669 14.0833 9.25002 14.0833 9.50002 13.8333C12.6667 11 14.5 9.41667 14.9167 9.08333L15 9C15.8334 8.16667 16.25 7.08333 16.25 6V5.83333C16.1667 3.5 14.3334 1.75 12 1.75C11.4167 1.75 10.25 2.16667 9.83335 3.08333C9.66669 3.41667 9.33335 3.58333 9.00002 3.58333C8.66669 3.58333 8.33335 3.41667 8.16669 3.08333C7.75002 2.25 6.66669 1.75 6.00002 1.75C3.75002 1.75 1.83335 3.58333 1.75002 5.83333V6.08333C1.75002 7.16667 2.25002 8.25 3.00002 9L3.58335 9.66667Z" fill="black"/>
</svg>
